solid bit holder6
facet normal 0.999994386763212 0.00312559358477502 -0.00120710679303842
outer loop
vertex 69.9754202483458 10.1811970598027 2.8199664825479e-015
vertex 70.0144852957353 3.49708359262069e-005 5.99998251455654
vertex 70.0 0.0 0.0
endloop
endfacet
facet normal 0.999994386763212 0.00312559358477502 -0.00120710679303842
outer loop
vertex 70.0144852957353 3.49708359262069e-005 5.99998251455654
vertex 69.9754202483458 10.1811970598027 2.8199664825479e-015
vertex 69.9949527720405 5.09061601531927 6.00000000002547
endloop
endfacet
facet normal 0.999994386763212 0.00312559358477502 -0.00120710679303842
outer loop
vertex 69.9949527720405 5.09061601531927 6.00000000002547
vertex 69.9754202483458 10.1811970598027 2.8199664825479e-015
vertex 69.9754202483459 10.1811970598026 6.0000174854944
endloop
endfacet
facet normal 5.08977486451823e-005 0.000678539209108887 0.999999768496954
outer loop
vertex 70.0144852957353 3.49708359262069e-005 5.99998251455654
vertex -0.0123371641051623 5.11018584244087 6.00001748549439
vertex -2.92976057127704 -0.00707311594354552 6.00709062205075
endloop
endfacet
facet normal 5.08977486451823e-005 0.000678539209108887 0.999999768496954
outer loop
vertex -0.0123371641051623 5.11018584244087 6.00001748549439
vertex 70.0144852957353 3.49708359262069e-005 5.99998251455654
vertex 69.9949527720405 5.09061601531927 6.00000000002547
endloop
endfacet
facet normal 5.10365841242213e-005 -0.000688279674599826 0.99999976183315
outer loop
vertex -0.0123371641051623 5.11018584244087 6.00001748549439
vertex 69.9754202483459 10.1811970598026 6.0000174854944
vertex -2.98319987029356 10.1740542702733 6.00716029583961
endloop
endfacet
facet normal 5.10365841242213e-005 -0.000688279674599826 0.99999976183315
outer loop
vertex 69.9754202483459 10.1811970598026 6.0000174854944
vertex -0.0123371641051623 5.11018584244087 6.00001748549439
vertex 69.9949527720405 5.09061601531927 6.00000000002547
endloop
endfacet
facet normal -0.000298679022074917 1.25257382860519e-006 -0.999999955394635
outer loop
vertex -8.88001000576433 10.1598180141798 0.021379107926696
vertex -8.82657070485573 -0.0213093720324663 0.021309434133269
vertex -11.7974318411897 5.0425590602899 0.0284522406884836
endloop
endfacet
facet normal -0.000298679022074917 1.25257382860519e-006 -0.999999955394635
outer loop
vertex -8.82657070485573 -0.0213093720324663 0.021309434133269
vertex -8.88001000576433 10.1598180141798 0.021379107926696
vertex 69.9754202483458 10.1811970598027 2.8199664825479e-015
endloop
endfacet
facet normal -0.000298679022074917 1.25257382860519e-006 -0.999999955394635
outer loop
vertex -8.82657070485573 -0.0213093720324663 0.021309434133269
vertex 69.9754202483458 10.1811970598027 2.8199664825479e-015
vertex 70.0 0.0 0.0
endloop
endfacet
facet normal -0.000213618227779458 0.999999966024897 -0.000149390288384476
outer loop
vertex -8.88001000576433 10.1598180141798 0.021379107926696
vertex 69.9754202483459 10.1811970598026 6.0000174854944
vertex 69.9754202483458 10.1811970598027 2.8199664825479e-015
endloop
endfacet
facet normal -0.000213618227779458 0.999999966024897 -0.000149390288384476
outer loop
vertex 69.9754202483459 10.1811970598026 6.0000174854944
vertex -8.88001000576433 10.1598180141798 0.021379107926696
vertex -2.98319987029356 10.1740542702733 6.00716029583961
endloop
endfacet
facet normal -0.000213618227779458 0.999999966024897 -0.000149390288384476
outer loop
vertex -2.98319987029356 10.1740542702733 6.00716029583961
vertex -8.88001000576433 10.1598180141798 0.021379107926696
vertex -8.83896833451437 10.1599170982149 17.021329565837
endloop
endfacet
facet normal -0.000213618227779458 0.999999966024897 -0.000149390288384476
outer loop
vertex -2.98319987029356 10.1740542702733 6.00716029583961
vertex -8.83896833451437 10.1599170982149 17.021329565837
vertex -2.95664349477889 10.1741183834725 17.0071282391933
endloop
endfacet
facet normal 0.000213032693522999 -0.999999966099362 0.000149727574349265
outer loop
vertex 70.0144852957353 3.49708359262069e-005 5.99998251455654
vertex -8.82657070485573 -0.0213093720324663 0.021309434133269
vertex 70.0 0.0 0.0
endloop
endfacet
facet normal 0.000213032693522999 -0.999999966099362 0.000149727574349265
outer loop
vertex -8.82657070485573 -0.0213093720324663 0.021309434133269
vertex 70.0144852957353 3.49708359262069e-005 5.99998251455654
vertex -2.92976057127704 -0.00707311594354552 6.00709062205075
endloop
endfacet
facet normal 0.000213032693522999 -0.999999966099362 0.000149727574349265
outer loop
vertex -8.82657070485573 -0.0213093720324663 0.021309434133269
vertex -2.92976057127704 -0.00707311594354552 6.00709062205075
vertex -8.78552903360577 -0.0212102879973775 17.0212598920435
endloop
endfacet
facet normal 0.000213032693522999 -0.999999966099362 0.000149727574349265
outer loop
vertex -8.78552903360577 -0.0212102879973775 17.0212598920435
vertex -2.92976057127704 -0.00707311594354552 6.00709062205075
vertex -2.90320419576236 -0.00700900274437167 17.0070585654045
endloop
endfacet
facet normal 0.868731445581179 -0.495279001012165 -0.00209442470084159
outer loop
vertex -7.93950202476315 8.56208395398984 4.01912948130798
vertex -9.90809545644864 5.05412861687131 17.0239404361509
vertex -9.9394802638751 5.05405284672683 4.02397832127832
endloop
endfacet
facet normal 0.868731445581179 -0.495279001012165 -0.00209442470084159
outer loop
vertex -9.90809545644864 5.05412861687131 17.0239404361509
vertex -7.93950202476315 8.56208395398984 4.01912948130798
vertex -7.9081172173367 8.56215972413433 17.0190915961806
endloop
endfacet
facet normal -0.00241422299150429 0.999997085759427 3.23581119488546e-016
outer loop
vertex -7.90187352286599 1.58092772246881 4.01907932731032
vertex -3.8340550656548 1.5907483719332 17.009296534464
vertex -3.86543987308124 1.59067260178872 4.00933441959139
endloop
endfacet
facet normal -0.00241422299150429 0.999997085759427 3.23581119488546e-016
outer loop
vertex -3.8340550656548 1.5907483719332 17.009296534464
vertex -7.90187352286599 1.58092772246881 4.01907932731032
vertex -7.87048871543954 1.58100349261329 17.0190414421829
endloop
endfacet
facet normal 0.00241422299149736 -0.999997085759427 -3.06856663120464e-016
outer loop
vertex -3.87168356717353 8.57190460345512 17.0093466884607
vertex -7.93950202476315 8.56208395398984 4.01912948130798
vertex -3.90306837459998 8.57182883331064 4.00938457358813
endloop
endfacet
facet normal 0.00241422299149736 -0.999997085759427 -3.06856663120464e-016
outer loop
vertex -7.93950202476315 8.56208395398984 4.01912948130798
vertex -3.87168356717353 8.57190460345512 17.0093466884607
vertex -7.9081172173367 8.56215972413433 17.0190915961806
endloop
endfacet
facet normal -0.868731330961269 0.495279202059402 0.00209442442295177
outer loop
vertex -3.8340550656548 1.5907483719332 17.009296534464
vertex -1.86546055668496 5.09870371179255 4.00448557702025
vertex -3.86543987308124 1.59067260178872 4.00933441959139
endloop
endfacet
facet normal -0.868731330961269 0.495279202059402 0.00209442442295177
outer loop
vertex -1.86546055668496 5.09870371179255 4.00448557702025
vertex -3.8340550656548 1.5907483719332 17.009296534464
vertex -1.83407574925852 5.09877948193703 17.0044476918928
endloop
endfacet
facet normal 0.00241421595588008 5.82847265239007e-006 0.999997085759427
outer loop
vertex -7.90187352286599 1.58092772246881 4.01907932731032
vertex -7.93950202476315 8.56208395398984 4.01912948130798
vertex -9.9394802638751 5.05405284672683 4.02397832127832
endloop
endfacet
facet normal 0.00241421595588008 5.82847265239007e-006 0.999997085759427
outer loop
vertex -7.93950202476315 8.56208395398984 4.01912948130798
vertex -7.90187352286599 1.58092772246881 4.01907932731032
vertex -3.90306837459998 8.57182883331064 4.00938457358813
endloop
endfacet
facet normal 0.00241421595588008 5.82847265239007e-006 0.999997085759427
outer loop
vertex -3.90306837459998 8.57182883331064 4.00938457358813
vertex -7.90187352286599 1.58092772246881 4.01907932731032
vertex -3.86543987308124 1.59067260178872 4.00933441959139
endloop
endfacet
facet normal 0.00241421595588008 5.82847265239007e-006 0.999997085759427
outer loop
vertex -3.90306837459998 8.57182883331064 4.00938457358813
vertex -3.86543987308124 1.59067260178872 4.00933441959139
vertex -1.86546055668496 5.09870371179255 4.00448557702025
endloop
endfacet
facet normal 0.862517411012895 0.506023089785146 -0.00208525871457756
outer loop
vertex -9.9394802638751 5.05405284672683 4.02397832127832
vertex -7.87048871543954 1.58100349261329 17.0190414421829
vertex -7.90187352286599 1.58092772246881 4.01907932731032
endloop
endfacet
facet normal 0.862517411012895 0.506023089785146 -0.00208525871457756
outer loop
vertex -7.87048871543954 1.58100349261329 17.0190414421829
vertex -9.9394802638751 5.05405284672683 4.02397832127832
vertex -9.90809545644864 5.05412861687131 17.0239404361509
endloop
endfacet
facet normal -0.8625172941131 -0.506023289042197 0.00208525843351675
outer loop
vertex -1.83407574925852 5.09877948193703 17.0044476918928
vertex -3.90306837459998 8.57182883331064 4.00938457358813
vertex -1.86546055668496 5.09870371179255 4.00448557702025
endloop
endfacet
facet normal -0.8625172941131 -0.506023289042197 0.00208525843351675
outer loop
vertex -3.90306837459998 8.57182883331064 4.00938457358813
vertex -1.83407574925852 5.09877948193703 17.0044476918928
vertex -3.87168356717353 8.57190460345512 17.0093466884607
endloop
endfacet
facet normal 0.00241421595587719 5.82847265585564e-006 0.999997085759427
outer loop
vertex -8.78552903360577 -0.0212102879973775 17.0212598920435
vertex -9.90809545644864 5.05412861687131 17.0239404361509
vertex -11.7563901699398 5.04265814432498 17.0284026985987
endloop
endfacet
facet normal 0.00241421595587719 5.82847265585564e-006 0.999997085759427
outer loop
vertex -9.90809545644864 5.05412861687131 17.0239404361509
vertex -8.78552903360577 -0.0212102879973775 17.0212598920435
vertex -7.87048871543954 1.58100349261329 17.0190414421829
endloop
endfacet
facet normal 0.00241421595587719 5.82847265585564e-006 0.999997085759427
outer loop
vertex -7.87048871543954 1.58100349261329 17.0190414421829
vertex -8.78552903360577 -0.0212102879973775 17.0212598920435
vertex -2.90320419576236 -0.00700900274437167 17.0070585654045
endloop
endfacet
facet normal 0.00241421595587719 5.82847265585564e-006 0.999997085759427
outer loop
vertex -7.87048871543954 1.58100349261329 17.0190414421829
vertex -2.90320419576236 -0.00700900274437167 17.0070585654045
vertex -3.8340550656548 1.5907483719332 17.009296534464
endloop
endfacet
facet normal 0.00241421595587719 5.82847265585564e-006 0.999997085759427
outer loop
vertex -3.8340550656548 1.5907483719332 17.009296534464
vertex -2.90320419576236 -0.00700900274437167 17.0070585654045
vertex -1.83407574925852 5.09877948193703 17.0044476918928
endloop
endfacet
facet normal 0.00241421595587719 5.82847265585564e-006 0.999997085759427
outer loop
vertex -1.83407574925852 5.09877948193703 17.0044476918928
vertex -2.90320419576236 -0.00700900274437167 17.0070585654045
vertex 0.0142192114095374 5.11024995564004 16.9999854288481
endloop
endfacet
facet normal 0.00241421595587719 5.82847265585564e-006 0.999997085759427
outer loop
vertex -9.90809545644864 5.05412861687131 17.0239404361509
vertex -8.83896833451437 10.1599170982149 17.021329565837
vertex -11.7563901699398 5.04265814432498 17.0284026985987
endloop
endfacet
facet normal 0.00241421595587719 5.82847265585564e-006 0.999997085759427
outer loop
vertex -8.83896833451437 10.1599170982149 17.021329565837
vertex -9.90809545644864 5.05412861687131 17.0239404361509
vertex -7.9081172173367 8.56215972413433 17.0190915961806
endloop
endfacet
facet normal 0.00241421595587719 5.82847265585564e-006 0.999997085759427
outer loop
vertex -8.83896833451437 10.1599170982149 17.021329565837
vertex -7.9081172173367 8.56215972413433 17.0190915961806
vertex -2.95664349477889 10.1741183834725 17.0071282391933
endloop
endfacet
facet normal 0.00241421595587719 5.82847265585564e-006 0.999997085759427
outer loop
vertex -2.95664349477889 10.1741183834725 17.0071282391933
vertex -7.9081172173367 8.56215972413433 17.0190915961806
vertex -3.87168356717353 8.57190460345512 17.0093466884607
endloop
endfacet
facet normal 0.00241421595587719 5.82847265585564e-006 0.999997085759427
outer loop
vertex -2.95664349477889 10.1741183834725 17.0071282391933
vertex -3.87168356717353 8.57190460345512 17.0093466884607
vertex -1.83407574925852 5.09877948193703 17.0044476918928
endloop
endfacet
facet normal 0.00241421595587719 5.82847265585564e-006 0.999997085759427
outer loop
vertex -2.95664349477889 10.1741183834725 17.0071282391933
vertex -1.83407574925852 5.09877948193703 17.0044476918928
vertex 0.0142192114095374 5.11024995564004 16.9999854288481
endloop
endfacet
facet normal -0.868731445581178 0.495279001012166 0.00209442470084096
outer loop
vertex -11.7563901699398 5.04265814432498 17.0284026985987
vertex -8.88001000576433 10.1598180141798 0.021379107926696
vertex -11.7974318411897 5.0425590602899 0.0284522406884836
endloop
endfacet
facet normal -0.868731445581178 0.495279001012166 0.00209442470084096
outer loop
vertex -8.88001000576433 10.1598180141798 0.021379107926696
vertex -11.7563901699398 5.04265814432498 17.0284026985987
vertex -8.83896833451437 10.1599170982149 17.021329565837
endloop
endfacet
facet normal -0.862517411012894 -0.506023089785148 0.00208525871457698
outer loop
vertex -8.78552903360577 -0.0212102879973775 17.0212598920435
vertex -11.7974318411897 5.0425590602899 0.0284522406884836
vertex -8.82657070485573 -0.0213093720324663 0.021309434133269
endloop
endfacet
facet normal -0.862517411012894 -0.506023089785148 0.00208525871457698
outer loop
vertex -11.7974318411897 5.0425590602899 0.0284522406884836
vertex -8.78552903360577 -0.0212102879973775 17.0212598920435
vertex -11.7563901699398 5.04265814432498 17.0284026985987
endloop
endfacet
facet normal 0.86873133096127 -0.495279202059401 -0.00209442442295159
outer loop
vertex -0.0123371641051623 5.11018584244087 6.00001748549439
vertex -2.90320419576236 -0.00700900274437167 17.0070585654045
vertex -2.92976057127704 -0.00707311594354552 6.00709062205075
endloop
endfacet
facet normal 0.86873133096127 -0.495279202059401 -0.00209442442295159
outer loop
vertex -2.90320419576236 -0.00700900274437167 17.0070585654045
vertex -0.0123371641051623 5.11018584244087 6.00001748549439
vertex 0.0142192114095374 5.11024995564004 16.9999854288481
endloop
endfacet
facet normal 0.862517294113103 0.506023289042191 -0.0020852584335166
outer loop
vertex -2.98319987029356 10.1740542702733 6.00716029583961
vertex 0.0142192114095374 5.11024995564004 16.9999854288481
vertex -0.0123371641051623 5.11018584244087 6.00001748549439
endloop
endfacet
facet normal 0.862517294113103 0.506023289042191 -0.0020852584335166
outer loop
vertex 0.0142192114095374 5.11024995564004 16.9999854288481
vertex -2.98319987029356 10.1740542702733 6.00716029583961
vertex -2.95664349477889 10.1741183834725 17.0071282391933
endloop
endfacet
endsolid bit holder6
